HIERARCHY
ROOT Hips
{
 OFFSET 0.000000 0.000000 0.000000
 CHANNELS 6 Xposition Yposition Zposition Yrotation Xrotation Zrotation
 JOINT Chest
 {
  OFFSET 0.000000 9.588913 -0.003946
  CHANNELS 3 Yrotation Xrotation Zrotation
  JOINT Chest2
  {
   OFFSET 0.000000 9.541882 0.008053
   CHANNELS 3 Yrotation Xrotation Zrotation
   JOINT Chest3
   {
    OFFSET 0.000000 9.501360 0.000000
    CHANNELS 3 Yrotation Xrotation Zrotation
    JOINT Chest4
    {
     OFFSET 0.000000 9.491660 0.000000
     CHANNELS 3 Yrotation Xrotation Zrotation
     JOINT Neck
     {
      OFFSET 0.000000 14.331917 0.000000
      CHANNELS 3 Yrotation Xrotation Zrotation
      JOINT Head
      {
       OFFSET 0.000000 8.884799 0.017034
       CHANNELS 3 Yrotation Xrotation Zrotation
       End Site
       {
        OFFSET 0.000000 16.896195 0.008993
       }
      }
     }
     JOINT RightCollar
     {
      OFFSET -2.923010 9.499495 0.000000
      CHANNELS 3 Yrotation Xrotation Zrotation
      JOINT RightShoulder
      {
       OFFSET -13.795216 0.000000 0.000000
       CHANNELS 3 Yrotation Xrotation Zrotation
       JOINT RightElbow
       {
        OFFSET -30.272209 0.000000 0.000000
        CHANNELS 3 Yrotation Xrotation Zrotation
        JOINT RightWrist
        {
         OFFSET -24.478199 0.000000 0.000000
         CHANNELS 3 Yrotation Xrotation Zrotation
         End Site
         {
          OFFSET -18.090752 0.000000 0.000000
         }
        }
       }
      }
     }
     JOINT LeftCollar
     {
      OFFSET 2.923010 9.499495 0.000000
      CHANNELS 3 Yrotation Xrotation Zrotation
      JOINT LeftShoulder
      {
       OFFSET 13.795216 0.000000 0.000000
       CHANNELS 3 Yrotation Xrotation Zrotation
       JOINT LeftElbow
       {
        OFFSET 30.272209 0.000000 0.000000
        CHANNELS 3 Yrotation Xrotation Zrotation
        JOINT LeftWrist
        {
         OFFSET 24.478199 0.000000 0.000000
         CHANNELS 3 Yrotation Xrotation Zrotation
         End Site
         {
          OFFSET 18.090752 0.000000 0.000000
         }
        }
       }
      }
     }
    }
   }
  }
 }
 JOINT RightHip
 {
  OFFSET -7.826875 0.019532 0.001973
  CHANNELS 3 Yrotation Xrotation Zrotation
  JOINT RightKnee
  {
   OFFSET 0.000000 -40.546152 -0.001885
   CHANNELS 3 Yrotation Xrotation Zrotation
   JOINT RightAnkle
   {
    OFFSET 0.000000 -39.417092 -0.003189
    CHANNELS 3 Yrotation Xrotation Zrotation
    JOINT RightToe
    {
     OFFSET 0.000000 -7.579396 17.243563
     CHANNELS 3 Yrotation Xrotation Zrotation
     End Site
     {
      OFFSET 0.000000 -1.500329 6.694466
     }
    }
   }
  }
 }
 JOINT LeftHip
 {
  OFFSET 7.826875 0.019532 0.001973
  CHANNELS 3 Yrotation Xrotation Zrotation
  JOINT LeftKnee
  {
   OFFSET 0.000000 -40.546152 -0.001885
   CHANNELS 3 Yrotation Xrotation Zrotation
   JOINT LeftAnkle
   {
    OFFSET 0.000000 -39.417092 -0.003189
    CHANNELS 3 Yrotation Xrotation Zrotation
    JOINT LeftToe
    {
     OFFSET 0.000000 -7.579396 17.243563
     CHANNELS 3 Yrotation Xrotation Zrotation
     End Site
     {
      OFFSET 0.000000 -1.500329 6.694466
     }
    }
   }
  }
 }
}
MOTION
Frames: 5
Frame Time: 0.008333
0.000000 87.345680 0.000000 0.000000 -5.767889 0.000000 0.000000 11.653876 0.000000 0.000000 -5.885988 0.000000 0.000000 -0.000000 0.000000 0.000000 -0.000000 0.000000 0.000000 12.528808 0.000000 0.000000 0.711711 0.000000 0.000000 -0.000000 0.000000 0.000000 -0.000000 0.000000 2.309063 -0.000000 0.000000 -2.309063 -0.000000 -0.000000 0.000000 -0.000000 0.000000 0.000000 0.000000 0.000000 -2.309063 0.000000 0.000000 2.309063 -0.000000 0.000000 0.000000 8.520374 0.000000 0.000000 1.905768 0.000000 -0.000000 -4.658254 0.000000 0.000000 -0.000000 0.000000 0.000000 8.520374 0.000000 0.000000 1.905768 0.000000 -0.000000 -4.658254 0.000000 0.000000 -0.000000 0.000000
-13.256827 89.358676 3.415734 -132.977065 -5.181645 0.250336 1.190277 2.328968 0.435267 0.671217 1.350683 0.234422 0.839943 1.687917 0.295520 0.671217 1.350683 0.234422 1.782227 24.435808 -0.688223 2.089045 0.710087 -1.152967 -1.903688 -0.473978 -1.688416 5.226021 -3.097053 89.252684 4.211571 9.635634 3.569623 -1.521345 -1.028171 0.284967 -0.484735 -0.322335 2.134552 -5.470320 -3.773538 -89.213631 2.390965 5.641792 -0.217707 0.459749 -6.012588 -0.403807 -3.427103 5.991428 -0.435486 1.430044 4.020831 0.328892 -0.129868 -4.602482 -0.423513 -0.022665 -0.014668 0.161873 1.668890 5.753876 -0.586779 2.282813 3.555778 0.682390 0.591929 -3.747799 -0.548442 -0.021616 -0.294546 0.119435
-13.237437 89.357971 3.399875 -132.964797 -5.070658 0.264666 1.165244 2.261093 0.424285 0.658343 1.304162 0.233817 0.823813 1.629776 0.294632 0.658342 1.304162 0.233817 1.814767 24.460807 -0.660369 2.118202 0.741062 -1.130290 -1.893185 -0.439598 -1.728399 5.397176 -3.135862 89.226631 4.026572 10.171838 3.511350 -1.659354 -0.938423 0.344658 -0.462665 -0.282707 2.134667 -5.156815 -3.602276 -89.442524 2.153981 5.326758 -0.220400 0.458055 -6.015615 -0.437251 -3.536366 6.080217 -0.435723 1.418483 3.680443 0.318009 -0.074347 -4.504061 -0.477698 -0.020378 0.009265 0.158138 2.028968 5.588364 -0.547877 2.198035 3.655695 0.677005 0.445047 -3.784025 -0.563102 -0.014619 -0.261405 0.101389
-13.217926 89.357108 3.377572 -132.948248 -4.969654 0.265322 1.142495 2.200944 0.415506 0.646076 1.264010 0.235113 0.808454 1.579591 0.296135 0.646076 1.264010 0.235113 1.838123 24.471709 -0.629451 2.136564 0.754505 -1.102140 -1.875225 -0.426847 -1.758905 5.444424 -3.148215 89.231903 3.887944 10.681234 3.455714 -1.773894 -0.871991 0.383476 -0.451144 -0.263919 2.118191 -4.930105 -3.439392 -89.604423 1.933737 5.023076 -0.260199 0.455046 -6.013902 -0.492136 -3.615586 6.177098 -0.416202 1.384139 3.352350 0.302398 -0.024893 -4.394163 -0.519999 -0.020512 0.013799 0.147532 2.428702 5.444004 -0.482174 2.101576 3.729385 0.660296 0.281656 -3.768326 -0.572761 -0.010762 -0.257350 0.084630
-13.200432 89.356449 3.350807 -132.933100 -4.885364 0.256636 1.124999 2.150604 0.403949 0.635232 1.230748 0.238184 0.794885 1.538015 0.299879 0.635232 1.230748 0.238184 1.854307 24.467305 -0.596794 2.146606 0.749006 -1.070417 -1.854898 -0.431889 -1.776333 5.396267 -3.136658 89.261740 3.791921 11.117740 3.410393 -1.857627 -0.841056 0.400673 -0.443215 -0.261099 2.089651 -4.798016 -3.301957 -89.699440 1.753100 4.759102 -0.323575 0.448655 -6.013498 -0.553596 -3.649096 6.288644 -0.383274 1.333164 3.027844 0.284389 0.005862 -4.281620 -0.550559 -0.020608 0.015403 0.132681 2.867063 5.324482 -0.402669 2.016965 3.790239 0.640073 0.094751 -3.745410 -0.579034 -0.008781 -0.248288 0.071243
